PathFileType	4	(X/Y/Z)	C:/ViconProjects/foot_20160225/trc/P_3_test01_dynamic.trc
DataRate	CameraRate	NumFrames	NumMarkers	Units	OrigDataRate	OrigDataStartFrame	OrigNumFrames
120.000000	120.000000	4	39	mm	120.000000	733	1954
Frame#	Time	LFWT			RFWT			VBWT			LKNE			LANK			LMT5			LMT1			LHEL			LTOE			RKNE			RANK			RMT5			RMT1			RHEL			RTOE			T10			FHEAD			THEAD			RHEAD			LBSH			LELB			LOWR			RBSH			RELB			ROWR			LTHI			RTHI			LSHAN			RSHAN			LIHEL			LOHEL			RIHEL			ROHEL			LMT3			LNAVI			LCUNE			RMT3			RNAVI			RCUNE			
		X0	Y0	Z0	X1	Y1	Z1	X2	Y2	Z2	X3	Y3	Z3	X4	Y4	Z4	X5	Y5	Z5	X6	Y6	Z6	X7	Y7	Z7	X8	Y8	Z8	X9	Y9	Z9	X10	Y10	Z10	X11	Y11	Z11	X12	Y12	Z12	X13	Y13	Z13	X14	Y14	Z14	X15	Y15	Z15	X16	Y16	Z16	X17	Y17	Z17	X18	Y18	Z18	X19	Y19	Z19	X20	Y20	Z20	X21	Y21	Z21	X22	Y22	Z22	X23	Y23	Z23	X24	Y24	Z24	X25	Y25	Z25	X26	Y26	Z26	X27	Y27	Z27	X28	Y28	Z28	X29	Y29	Z29	X30	Y30	Z30	X31	Y31	Z31	X32	Y32	Z32	X33	Y33	Z33	X34	Y34	Z34	X35	Y35	Z35	X36	Y36	Z36	X37	Y37	Z37	X38	Y38	Z38	
733	6.108333	-328.482600	137.140270	949.327820	-340.265530	-152.092270	946.206480	-558.405940	4.166480	944.390930	-341.576720	162.070940	468.004700	-407.270970	161.419720	59.679020	-308.387390	191.547060	35.963820	-258.256960	121.797780	47.606200	-472.717470	104.589160	39.734010	-220.645830	133.014890	33.471080	-353.412170	-166.243230	461.520200	-428.984100	-161.338550	69.760550	-329.493070	-196.839780	35.494420	-277.493800	-123.166180	47.252160	-490.356570	-93.418310	39.070270	-239.493350	-144.882350	42.052020	-519.187620	58.769970	1287.461180	-194.063230	-107.217860	1603.870480	-253.882840	-29.417550	1703.370480	-344.908510	47.188900	1653.130130	-347.583650	195.236240	1426.164310	-411.538600	320.578890	1116.491700	-236.643040	297.334780	928.210020	-371.992520	-209.699580	1417.370000	-428.972290	-314.278930	1095.475710	-216.968700	-308.911220	941.258790	-270.327390	102.770770	630.738160	-284.492400	-118.203980	578.010310	-332.325740	90.754330	323.243410	-359.684540	-91.281550	229.249820	-433.316590	73.487540	41.063260	-445.633820	144.134220	38.981140	-446.421050	-67.442570	40.297780	-464.823580	-139.988770	40.096580	-269.280460	158.590150	42.567450	-352.144200	75.591800	51.070290	-372.505340	175.838500	32.060230	-289.222560	-159.095670	43.364850	-370.896360	-76.352130	53.693010	-392.597960	-175.188100	35.246190
734	6.116667	-328.346250	137.513780	949.497620	-340.342350	-151.698430	946.432430	-558.289790	4.578490	944.042600	-342.197480	162.099320	468.104610	-407.309660	161.463790	59.733350	-308.269500	191.514800	35.922330	-258.264950	121.747600	47.533350	-472.725340	104.654670	39.721590	-220.556340	132.934980	33.451130	-353.970310	-166.006090	461.700380	-429.084630	-161.370730	69.834120	-329.462860	-196.879850	35.479180	-277.501770	-123.155750	47.204490	-490.305270	-93.428990	39.079490	-239.416870	-144.829060	42.018750	-520.170230	59.570180	1287.121220	-196.399660	-106.291860	1604.304200	-256.157380	-28.945620	1703.708500	-346.438720	48.038780	1653.521000	-349.349910	196.350890	1426.236080	-408.543910	321.299190	1116.116820	-228.467270	295.211730	933.217770	-373.112180	-208.996060	1417.931400	-427.321170	-314.667020	1095.961670	-210.477750	-304.749180	948.330020	-270.558070	102.771030	630.703800	-284.803380	-117.831390	578.032170	-332.949800	90.657820	323.198730	-359.930180	-91.143020	229.428790	-433.289670	73.479750	41.035310	-445.603790	144.155090	39.020710	-446.435030	-67.435480	40.292930	-464.886630	-139.967990	40.089330	-269.225010	158.537830	42.450330	-352.121730	75.551510	51.028720	-372.569950	175.823100	32.109600	-289.170680	-159.151410	43.269620	-370.898590	-76.369450	53.696090	-392.548770	-175.167710	35.227670
735	6.125000	-328.366640	137.773990	949.521610	-340.102750	-150.981020	946.726010	-558.347230	5.014720	943.763920	-342.762240	162.210240	468.266450	-407.184540	161.420750	59.732460	-308.356630	191.679080	35.933460	-258.231110	121.648500	47.513540	-472.682770	104.663200	39.737420	-220.388790	132.871290	33.379340	-354.201780	-165.754970	461.894350	-429.011140	-161.387820	69.818440	-329.357730	-196.953480	35.439800	-277.436800	-123.190250	47.208520	-490.245910	-93.437950	39.102610	-239.423740	-144.804240	41.935750	-520.719420	60.074990	1287.049070	-197.621200	-105.811610	1605.261110	-257.626190	-28.310120	1703.816650	-347.996890	48.804030	1653.922360	-349.768340	196.533630	1426.534670	-405.515960	322.026210	1115.771970	-221.115070	292.683010	938.372990	-374.279390	-208.299900	1418.493650	-425.128540	-314.258670	1096.353150	-204.853240	-300.978880	954.820500	-270.868350	102.865060	630.548160	-284.810120	-117.682610	578.054690	-333.710850	90.529160	323.153170	-359.944120	-91.077000	229.457080	-433.269620	73.484730	41.007960	-445.529330	144.159290	38.992270	-446.345730	-67.477470	40.300030	-464.684050	-139.973790	40.066300	-269.151670	158.558930	42.371890	-352.077760	75.494550	50.938390	-372.524960	175.740390	32.042260	-288.905790	-159.220500	43.119360	-370.852750	-76.385250	53.656180	-392.539120	-175.186550	35.230750
736	6.133333	-328.130130	138.115360	949.624020	-340.321170	-150.785930	946.863460	-558.153320	5.549360	943.419130	-343.133610	162.319230	468.309970	-407.291930	161.456090	59.699790	-308.293820	191.563080	35.948450	-258.167210	121.589250	47.382480	-472.680480	104.599510	39.735240	-220.306560	132.731430	33.274900	-354.436770	-165.578130	461.959930	-428.868710	-161.337220	69.742270	-329.311000	-196.936280	35.385950	-277.351440	-123.224830	47.179190	-490.199980	-93.416270	39.119240	-239.355960	-144.736830	41.935620	-521.390140	60.683150	1286.764280	-199.178250	-105.304530	1605.679690	-259.482450	-27.265090	1704.439210	-349.639470	49.414730	1654.135860	-350.511380	196.913790	1426.524050	-402.808320	322.725650	1115.511720	-214.186540	290.419040	943.239620	-375.208740	-207.415760	1419.057620	-422.732240	-314.363490	1096.892210	-199.920120	-297.414250	961.278810	-271.120360	102.807960	630.481200	-284.771450	-117.481900	578.156010	-334.185940	90.511630	323.205570	-360.065280	-91.042550	229.542240	-433.270660	73.518550	41.011620	-445.504000	144.119280	39.004390	-446.308410	-67.454250	40.326410	-464.717100	-140.025510	40.124950	-269.046540	158.535750	42.297730	-351.969480	75.466200	50.867790	-372.495760	175.670910	32.028430	-288.742520	-159.238510	42.985700	-370.861390	-76.378640	53.643500	-392.532260	-175.200740	35.219380
